<svg xmlns="http://www.w3.org/2000/svg" xmlns:xlink="http://www.w3.org/1999/xlink" width="500" zoomAndPan="magnify" viewBox="0 0 375 374.999991" height="500" preserveAspectRatio="xMidYMid meet" version="1.2"><defs/><g id="5ec4ff220e"><g style="fill:#e60000;fill-opacity:1;"><g transform="translate(71.501954, 206.249986)"><path style="stroke:none" d="M 1.5625 -15.6875 C 1.5625 -18.894531 2.164062 -21.710938 3.375 -24.140625 C 4.59375 -26.566406 6.25 -28.429688 8.34375 -29.734375 C 10.4375 -31.046875 12.769531 -31.703125 15.34375 -31.703125 C 17.539062 -31.703125 19.46875 -31.253906 21.125 -30.359375 C 22.789062 -29.460938 24.070312 -28.285156 24.96875 -26.828125 L 24.96875 -31.25 L 34.546875 -31.25 L 34.546875 0 L 24.96875 0 L 24.96875 -4.421875 C 24.039062 -2.960938 22.742188 -1.785156 21.078125 -0.890625 C 19.421875 0.00390625 17.488281 0.453125 15.28125 0.453125 C 12.75 0.453125 10.4375 -0.207031 8.34375 -1.53125 C 6.25 -2.863281 4.59375 -4.75 3.375 -7.1875 C 2.164062 -9.632812 1.5625 -12.46875 1.5625 -15.6875 Z M 24.96875 -15.625 C 24.96875 -18.007812 24.304688 -19.894531 22.984375 -21.28125 C 21.660156 -22.664062 20.046875 -23.359375 18.140625 -23.359375 C 16.234375 -23.359375 14.617188 -22.675781 13.296875 -21.3125 C 11.972656 -19.945312 11.3125 -18.070312 11.3125 -15.6875 C 11.3125 -13.289062 11.972656 -11.390625 13.296875 -9.984375 C 14.617188 -8.585938 16.234375 -7.890625 18.140625 -7.890625 C 20.046875 -7.890625 21.660156 -8.582031 22.984375 -9.96875 C 24.304688 -11.351562 24.96875 -13.238281 24.96875 -15.625 Z M 24.96875 -15.625 "/></g></g><g style="fill:#e60000;fill-opacity:1;"><g transform="translate(109.520643, 206.249986)"><path style="stroke:none" d="M 34.328125 -31.25 L 34.328125 0 L 24.75 0 L 24.75 -4.25 C 23.78125 -2.875 22.460938 -1.765625 20.796875 -0.921875 C 19.140625 -0.078125 17.300781 0.34375 15.28125 0.34375 C 12.894531 0.34375 10.785156 -0.1875 8.953125 -1.25 C 7.128906 -2.320312 5.710938 -3.863281 4.703125 -5.875 C 3.691406 -7.894531 3.1875 -10.265625 3.1875 -12.984375 L 3.1875 -31.25 L 12.71875 -31.25 L 12.71875 -14.28125 C 12.71875 -12.1875 13.253906 -10.5625 14.328125 -9.40625 C 15.410156 -8.25 16.867188 -7.671875 18.703125 -7.671875 C 20.566406 -7.671875 22.039062 -8.25 23.125 -9.40625 C 24.207031 -10.5625 24.75 -12.1875 24.75 -14.28125 L 24.75 -31.25 Z M 34.328125 -31.25 "/></g></g><g style="fill:#e60000;fill-opacity:1;"><g transform="translate(147.259376, 206.249986)"><path style="stroke:none" d="M 20.890625 -8.125 L 20.890625 0 L 16.015625 0 C 12.546875 0 9.835938 -0.847656 7.890625 -2.546875 C 5.953125 -4.242188 4.984375 -7.015625 4.984375 -10.859375 L 4.984375 -23.296875 L 1.171875 -23.296875 L 1.171875 -31.25 L 4.984375 -31.25 L 4.984375 -38.859375 L 14.5625 -38.859375 L 14.5625 -31.25 L 20.828125 -31.25 L 20.828125 -23.296875 L 14.5625 -23.296875 L 14.5625 -10.75 C 14.5625 -9.820312 14.785156 -9.148438 15.234375 -8.734375 C 15.679688 -8.328125 16.425781 -8.125 17.46875 -8.125 Z M 20.890625 -8.125 "/></g></g><g style="fill:#e60000;fill-opacity:1;"><g transform="translate(169.992205, 206.249986)"><path style="stroke:none" d="M 17.703125 0.453125 C 14.640625 0.453125 11.882812 -0.195312 9.4375 -1.5 C 6.988281 -2.8125 5.0625 -4.679688 3.65625 -7.109375 C 2.257812 -9.535156 1.5625 -12.375 1.5625 -15.625 C 1.5625 -18.832031 2.269531 -21.660156 3.6875 -24.109375 C 5.113281 -26.554688 7.054688 -28.429688 9.515625 -29.734375 C 11.984375 -31.046875 14.75 -31.703125 17.8125 -31.703125 C 20.875 -31.703125 23.632812 -31.046875 26.09375 -29.734375 C 28.5625 -28.429688 30.503906 -26.554688 31.921875 -24.109375 C 33.335938 -21.660156 34.046875 -18.832031 34.046875 -15.625 C 34.046875 -12.414062 33.328125 -9.585938 31.890625 -7.140625 C 30.453125 -4.691406 28.488281 -2.8125 26 -1.5 C 23.519531 -0.195312 20.753906 0.453125 17.703125 0.453125 Z M 17.703125 -7.84375 C 19.523438 -7.84375 21.078125 -8.515625 22.359375 -9.859375 C 23.648438 -11.203125 24.296875 -13.125 24.296875 -15.625 C 24.296875 -18.125 23.671875 -20.046875 22.421875 -21.390625 C 21.171875 -22.734375 19.632812 -23.40625 17.8125 -23.40625 C 15.945312 -23.40625 14.394531 -22.742188 13.15625 -21.421875 C 11.925781 -20.097656 11.3125 -18.164062 11.3125 -15.625 C 11.3125 -13.125 11.914062 -11.203125 13.125 -9.859375 C 14.34375 -8.515625 15.867188 -7.84375 17.703125 -7.84375 Z M 17.703125 -7.84375 "/></g></g><g style="fill:#e60000;fill-opacity:1;"><g transform="translate(205.659225, 206.249986)"><path style="stroke:none" d="M 7.953125 0.453125 C 6.273438 0.453125 4.898438 -0.0390625 3.828125 -1.03125 C 2.765625 -2.019531 2.234375 -3.242188 2.234375 -4.703125 C 2.234375 -6.191406 2.765625 -7.441406 3.828125 -8.453125 C 4.898438 -9.460938 6.273438 -9.96875 7.953125 -9.96875 C 9.597656 -9.96875 10.953125 -9.460938 12.015625 -8.453125 C 13.078125 -7.441406 13.609375 -6.191406 13.609375 -4.703125 C 13.609375 -3.242188 13.078125 -2.019531 12.015625 -1.03125 C 10.953125 -0.0390625 9.597656 0.453125 7.953125 0.453125 Z M 7.953125 0.453125 "/></g></g><g style="fill:#e60000;fill-opacity:1;"><g transform="translate(221.449015, 206.249986)"><path style="stroke:none" d="M 20.890625 -8.125 L 20.890625 0 L 16.015625 0 C 12.546875 0 9.835938 -0.847656 7.890625 -2.546875 C 5.953125 -4.242188 4.984375 -7.015625 4.984375 -10.859375 L 4.984375 -23.296875 L 1.171875 -23.296875 L 1.171875 -31.25 L 4.984375 -31.25 L 4.984375 -38.859375 L 14.5625 -38.859375 L 14.5625 -31.25 L 20.828125 -31.25 L 20.828125 -23.296875 L 14.5625 -23.296875 L 14.5625 -10.75 C 14.5625 -9.820312 14.785156 -9.148438 15.234375 -8.734375 C 15.679688 -8.328125 16.425781 -8.125 17.46875 -8.125 Z M 20.890625 -8.125 "/></g></g><g style="fill:#e60000;fill-opacity:1;"><g transform="translate(244.181843, 206.249986)"><path style="stroke:none" d="M 43.34375 -31.578125 C 47.226562 -31.578125 50.316406 -30.398438 52.609375 -28.046875 C 54.910156 -25.703125 56.0625 -22.4375 56.0625 -18.25 L 56.0625 0 L 46.53125 0 L 46.53125 -16.96875 C 46.53125 -18.976562 46 -20.535156 44.9375 -21.640625 C 43.875 -22.742188 42.410156 -23.296875 40.546875 -23.296875 C 38.679688 -23.296875 37.210938 -22.742188 36.140625 -21.640625 C 35.078125 -20.535156 34.546875 -18.976562 34.546875 -16.96875 L 34.546875 0 L 25.03125 0 L 25.03125 -16.96875 C 25.03125 -18.976562 24.5 -20.535156 23.4375 -21.640625 C 22.375 -22.742188 20.910156 -23.296875 19.046875 -23.296875 C 17.171875 -23.296875 15.703125 -22.742188 14.640625 -21.640625 C 13.578125 -20.535156 13.046875 -18.976562 13.046875 -16.96875 L 13.046875 0 L 3.46875 0 L 3.46875 -31.25 L 13.046875 -31.25 L 13.046875 -27.328125 C 14.015625 -28.628906 15.28125 -29.660156 16.84375 -30.421875 C 18.414062 -31.191406 20.191406 -31.578125 22.171875 -31.578125 C 24.523438 -31.578125 26.625 -31.070312 28.46875 -30.0625 C 30.320312 -29.0625 31.769531 -27.628906 32.8125 -25.765625 C 33.894531 -27.484375 35.367188 -28.878906 37.234375 -29.953125 C 39.109375 -31.035156 41.144531 -31.578125 43.34375 -31.578125 Z M 43.34375 -31.578125 "/></g></g></g></svg>