<svg width="28" height="28" viewBox="0 0 28 28" fill="none" xmlns="http://www.w3.org/2000/svg">
<g clip-path="url(#clip0_478_5)">
<path d="M8.99151 10.7987C9.44768 11.2548 9.44768 11.9933 8.99151 12.4483C8.53535 12.9045 7.79685 12.9045 7.34185 12.4483C6.88568 11.9922 6.88568 11.2537 7.34185 10.7987C7.79801 10.3425 8.53651 10.3425 8.99151 10.7987ZM25.1522 17.8978L24.493 18.557C24.4615 19.9955 23.9038 21.4235 22.8188 22.5225L19.124 26.2652C18.0238 27.3793 16.5562 27.9953 14.9905 28H14.9707C13.4132 28 11.949 27.3933 10.8477 26.292L2.19568 17.7135C1.43735 16.9563 1.07101 15.9145 1.18768 14.8517L2.08018 6.78301C2.13968 6.25101 2.55151 5.82751 3.08118 5.75518L11.1183 4.65618C12.2057 4.51151 13.3 4.88134 14.0677 5.64901L22.7885 14.2963C23.24 14.7478 23.6017 15.2565 23.8747 15.799C24.822 14.4387 24.689 12.5382 23.4757 11.3248L14.6195 2.68568C14.3523 2.41851 13.9837 2.29484 13.6267 2.34501L5.58951 3.44401C4.94901 3.53034 4.36218 3.08351 4.27468 2.44651C4.18835 1.80834 4.63518 1.22034 5.27218 1.13284L13.3105 0.0326761C14.385 -0.120157 15.491 0.255509 16.2598 1.02668L25.1137 9.66584C27.384 11.935 27.3968 15.624 25.151 17.899L25.1522 17.8978ZM21.1412 15.9495L12.4203 7.30218C12.1602 7.04201 11.795 6.92184 11.4322 6.96734L4.29801 7.94384L3.50585 15.1072C3.46735 15.4607 3.58868 15.8083 3.84068 16.0592L12.4927 24.6377C13.1565 25.3027 14.035 25.6655 14.9695 25.6655H14.9812C15.9215 25.6632 16.8023 25.2933 17.4615 24.6237L21.1563 20.881C22.5038 19.516 22.4968 17.3028 21.14 15.9472L21.1412 15.9495Z" fill="black"/>
</g>
<defs>
<clipPath id="clip0_478_5">
<rect width="28" height="28" fill="white"/>
</clipPath>
</defs>
</svg>
