<svg width="29" height="28" viewBox="0 0 29 28" fill="none" xmlns="http://www.w3.org/2000/svg">
<path fill-rule="evenodd" clip-rule="evenodd" d="M26.2821 14C26.2821 20.4433 21.0588 25.6667 14.6154 25.6667C8.17211 25.6667 2.94876 20.4433 2.94876 14C2.94876 7.55669 8.17211 2.33334 14.6154 2.33334C21.0588 2.33334 26.2821 7.55669 26.2821 14ZM13.1719 23.2224C12.4033 21.3359 10.2063 16.2248 8.78209 15.75C7.78596 15.418 6.41181 15.4639 5.41276 15.5652C6.07817 19.5062 9.21378 22.6078 13.1719 23.2224ZM5.66645 11.3406C6.81153 7.48154 10.3848 4.66668 14.6154 4.66668C18.8461 4.66668 22.4193 7.48154 23.5644 11.3406C21.7225 10.9954 18.4166 10.5 14.6154 10.5C10.8142 10.5 7.50839 10.9954 5.66645 11.3406ZM23.8181 15.5652C22.819 15.4639 21.4449 15.418 20.4488 15.75C19.0245 16.2248 16.8276 21.3359 16.059 23.2224C20.0171 22.6078 23.1527 19.5062 23.8181 15.5652Z" fill="black"/>
</svg>
