<svg width="30" height="30" viewBox="0 0 30 30" fill="none" xmlns="http://www.w3.org/2000/svg">
<path d="M21.25 3.4375H8.75C5.47625 3.4375 2.8125 6.10125 2.8125 9.375V25.625C2.8125 26.0037 3.04127 26.3462 3.39127 26.4912C3.50752 26.54 3.62875 26.5625 3.75 26.5625C3.99375 26.5625 4.23375 26.4675 4.4125 26.2875L7.43 23.27C7.725 22.975 8.1175 22.8125 8.535 22.8125H21.25C24.5237 22.8125 27.1875 20.1487 27.1875 16.875V9.375C27.1875 6.10125 24.5237 3.4375 21.25 3.4375ZM25.3125 16.875C25.3125 19.115 23.49 20.9375 21.25 20.9375H8.53626C7.61751 20.9375 6.755 21.295 6.105 21.945L4.6875 23.3624V9.375C4.6875 7.135 6.51 5.3125 8.75 5.3125H21.25C23.49 5.3125 25.3125 7.135 25.3125 9.375V16.875ZM11.25 13.125C11.25 13.815 10.69 14.375 10 14.375C9.31 14.375 8.75 13.815 8.75 13.125C8.75 12.435 9.31 11.875 10 11.875C10.69 11.875 11.25 12.435 11.25 13.125ZM16.25 13.125C16.25 13.815 15.69 14.375 15 14.375C14.31 14.375 13.75 13.815 13.75 13.125C13.75 12.435 14.31 11.875 15 11.875C15.69 11.875 16.25 12.435 16.25 13.125ZM21.25 13.125C21.25 13.815 20.69 14.375 20 14.375C19.31 14.375 18.75 13.815 18.75 13.125C18.75 12.435 19.31 11.875 20 11.875C20.69 11.875 21.25 12.435 21.25 13.125Z" fill="#1E4EED"/>
</svg>
