<svg width="31" height="30" viewBox="0 0 31 30" fill="none" xmlns="http://www.w3.org/2000/svg">
<path d="M21.5 3.4375H9C5.72625 3.4375 3.0625 6.10125 3.0625 9.375V25.625C3.0625 26.0037 3.29127 26.3462 3.64127 26.4912C3.75752 26.54 3.87875 26.5625 4 26.5625C4.24375 26.5625 4.48375 26.4675 4.6625 26.2875L7.68 23.27C7.975 22.975 8.3675 22.8125 8.785 22.8125H21.5C24.7738 22.8125 27.4375 20.1488 27.4375 16.875V9.375C27.4375 6.10125 24.7738 3.4375 21.5 3.4375ZM25.5625 16.875C25.5625 19.115 23.74 20.9375 21.5 20.9375H8.78626C7.86751 20.9375 7.005 21.295 6.355 21.945L4.9375 23.3624V9.375C4.9375 7.135 6.76 5.3125 9 5.3125H21.5C23.74 5.3125 25.5625 7.135 25.5625 9.375V16.875ZM11.5 13.125C11.5 13.815 10.94 14.375 10.25 14.375C9.56 14.375 9 13.815 9 13.125C9 12.435 9.56 11.875 10.25 11.875C10.94 11.875 11.5 12.435 11.5 13.125ZM16.5 13.125C16.5 13.815 15.94 14.375 15.25 14.375C14.56 14.375 14 13.815 14 13.125C14 12.435 14.56 11.875 15.25 11.875C15.94 11.875 16.5 12.435 16.5 13.125ZM21.5 13.125C21.5 13.815 20.94 14.375 20.25 14.375C19.56 14.375 19 13.815 19 13.125C19 12.435 19.56 11.875 20.25 11.875C20.94 11.875 21.5 12.435 21.5 13.125Z" fill="#1B1C1E"/>
</svg>
