<svg width="29" height="28" viewBox="0 0 29 28" fill="none" xmlns="http://www.w3.org/2000/svg">
<g clip-path="url(#clip0_478_1506)">
<path d="M13.2247 11.4858C13.3853 11.7837 13.4619 12.1197 13.4463 12.4577C13.4307 12.7957 13.3234 13.1232 13.1361 13.405L10.9404 16.9482C10.7774 17.2112 10.5165 17.3986 10.2152 17.4693C9.91393 17.54 9.59692 17.4881 9.33392 17.325C9.07091 17.1619 8.88345 16.9011 8.81278 16.5998C8.74211 16.2985 8.79402 15.9815 8.95708 15.7185L10.7456 12.8333H8.33292C8.03877 12.8335 7.74869 12.7647 7.48592 12.6325C7.22315 12.5003 6.99501 12.3084 6.81978 12.0721C6.64454 11.8358 6.52709 11.5618 6.47684 11.272C6.4266 10.9822 6.44494 10.6846 6.53042 10.4032C6.56542 10.3075 8.95475 6.38867 8.95475 6.38867C9.03052 6.24942 9.13387 6.12709 9.25849 6.02911C9.38311 5.93114 9.5264 5.8596 9.67959 5.81884C9.83278 5.77809 9.99267 5.76898 10.1495 5.79208C10.3063 5.81518 10.4568 5.86999 10.5918 5.95318C10.7267 6.03637 10.8433 6.14618 10.9344 6.27592C11.0254 6.40566 11.0891 6.5526 11.1215 6.70777C11.154 6.86294 11.1544 7.02309 11.1229 7.17844C11.0913 7.33379 11.0284 7.48109 10.9381 7.61133L9.16475 10.5H11.5821C11.9194 10.5006 12.2503 10.5925 12.5395 10.7661C12.8288 10.9397 13.0656 11.1884 13.2247 11.4858ZM28.6154 3.5V6.41667C28.6156 7.08905 28.3834 7.74083 27.9582 8.26169C27.533 8.78256 26.9409 9.14052 26.2821 9.275V19.8333C26.2821 21.071 25.7904 22.258 24.9152 23.1332C24.0401 24.0083 22.8531 24.5 21.6154 24.5H18.7944C18.3395 25.5395 17.5917 26.4239 16.6424 27.0455C15.6931 27.667 14.5834 27.9987 13.4488 28H6.44875C4.90222 27.9981 3.41957 27.383 2.32601 26.2894C1.23245 25.1959 0.61727 23.7132 0.615417 22.1667L0.615417 5.83333C0.61727 4.28681 1.23245 2.80415 2.32601 1.71059C3.41957 0.617029 4.90222 0.0018525 6.44875 0L13.4488 0C14.9953 0.0018525 16.4779 0.617029 17.5715 1.71059C18.6651 2.80415 19.2802 4.28681 19.2821 5.83333V22.1667H21.6154C22.2343 22.1667 22.8277 21.9208 23.2653 21.4832C23.7029 21.0457 23.9487 20.4522 23.9487 19.8333V9.275C23.29 9.14052 22.6979 8.78256 22.2727 8.26169C21.8475 7.74083 21.6153 7.08905 21.6154 6.41667V3.5C21.6154 3.19058 21.7383 2.89383 21.9571 2.67504C22.1759 2.45625 22.4727 2.33333 22.7821 2.33333C23.0915 2.33333 23.3883 2.45625 23.607 2.67504C23.8258 2.89383 23.9487 3.19058 23.9487 3.5V4.66667H26.2821V3.5C26.2821 3.19058 26.405 2.89383 26.6238 2.67504C26.8426 2.45625 27.1393 2.33333 27.4487 2.33333C27.7582 2.33333 28.0549 2.45625 28.2737 2.67504C28.4925 2.89383 28.6154 3.19058 28.6154 3.5ZM16.9487 22.1667V12.8333H15.7821C15.4727 12.8333 15.1759 12.7104 14.9571 12.4916C14.7383 12.2728 14.6154 11.9761 14.6154 11.6667C14.6154 11.3572 14.7383 11.0605 14.9571 10.8417C15.1759 10.6229 15.4727 10.5 15.7821 10.5H16.9487V5.83333C16.9487 4.90508 16.58 4.01484 15.9236 3.35846C15.2672 2.70208 14.377 2.33333 13.4488 2.33333H6.44875C5.52049 2.33333 4.63025 2.70208 3.97388 3.35846C3.3175 4.01484 2.94875 4.90508 2.94875 5.83333V10.5H4.11542C4.42484 10.5 4.72158 10.6229 4.94038 10.8417C5.15917 11.0605 5.28208 11.3572 5.28208 11.6667C5.28208 11.9761 5.15917 12.2728 4.94038 12.4916C4.72158 12.7104 4.42484 12.8333 4.11542 12.8333H2.94875V22.1667C2.94875 23.0949 3.3175 23.9852 3.97388 24.6415C4.63025 25.2979 5.52049 25.6667 6.44875 25.6667H13.4488C14.377 25.6667 15.2672 25.2979 15.9236 24.6415C16.58 23.9852 16.9487 23.0949 16.9487 22.1667Z" fill="black"/>
</g>
<defs>
<clipPath id="clip0_478_1506">
<rect width="28" height="28" fill="white" transform="translate(0.615417)"/>
</clipPath>
</defs>
</svg>
