<svg width="28" height="28" viewBox="0 0 28 28" fill="none" xmlns="http://www.w3.org/2000/svg">
<g clip-path="url(#clip0_478_878)">
<path d="M25.0833 10.5H24.5V9.91666C24.5 8.30899 23.191 6.99999 21.5833 6.99999H18.6667V3.49999H22.1667C22.8107 3.49999 23.3333 2.97732 23.3333 2.33332C23.3333 1.68932 22.8107 1.16666 22.1667 1.16666H12.8333C12.1893 1.16666 11.6667 1.68932 11.6667 2.33332C11.6667 2.97732 12.1893 3.49999 12.8333 3.49999H16.3333V6.99999H13.3432C12.3013 6.99999 11.3213 7.45966 10.6552 8.25999L8.78733 10.5H8.75C7.14233 10.5 5.83333 11.809 5.83333 13.4167V15.1667H2.33333V11.6667C2.33333 11.0227 1.81067 10.5 1.16667 10.5C0.522667 10.5 0 11.0227 0 11.6667V21C0 21.644 0.522667 22.1667 1.16667 22.1667C1.81067 22.1667 2.33333 21.644 2.33333 21V17.5H5.83333V20.0328C5.83333 20.9673 6.19733 21.847 6.85883 22.5085L8.9915 24.6412C9.65183 25.3027 10.5315 25.6667 11.4672 25.6667H21.5833C22.9927 25.6667 24.1698 24.6633 24.4417 23.3333H25.0833C26.691 23.3333 28 22.0243 28 20.4167V13.4167C28 11.809 26.691 10.5 25.0833 10.5ZM25.6667 20.4167C25.6667 20.7387 25.4053 21 25.0833 21H23.3333C22.6893 21 22.1667 21.5227 22.1667 22.1667V22.75C22.1667 23.072 21.9053 23.3333 21.5833 23.3333H11.4672C11.1557 23.3333 10.8617 23.212 10.6412 22.9915L8.5085 20.8588C8.288 20.6383 8.16667 20.3455 8.16667 20.0328V13.4167C8.16667 13.0947 8.428 12.8333 8.75 12.8333H9.33333C9.67983 12.8333 10.0077 12.6793 10.2293 12.4133L12.4472 9.75332C12.6688 9.48616 12.9955 9.33332 13.3432 9.33332H21.5833C21.9053 9.33332 22.1667 9.59466 22.1667 9.91666V11.6667C22.1667 12.3107 22.6893 12.8333 23.3333 12.8333H25.0833C25.4053 12.8333 25.6667 13.0947 25.6667 13.4167V20.4167Z" fill="black"/>
</g>
<defs>
<clipPath id="clip0_478_878">
<rect width="28" height="28" fill="white"/>
</clipPath>
</defs>
</svg>
