<svg width="21" height="21" viewBox="0 0 21 21" fill="none" xmlns="http://www.w3.org/2000/svg">
<g clip-path="url(#clip0_478_273)">
<path d="M0.875 4.15654H3.269C3.45681 4.84755 3.86678 5.45757 4.43566 5.89248C5.00454 6.32738 5.70073 6.56301 6.41681 6.56301C7.13289 6.56301 7.82908 6.32738 8.39796 5.89248C8.96685 5.45757 9.37682 4.84755 9.56462 4.15654H20.125C20.3571 4.15654 20.5796 4.06435 20.7437 3.90026C20.9078 3.73616 21 3.5136 21 3.28154C21 3.04947 20.9078 2.82691 20.7437 2.66282C20.5796 2.49872 20.3571 2.40654 20.125 2.40654H9.56462C9.37682 1.71552 8.96685 1.10551 8.39796 0.670598C7.82908 0.235691 7.13289 6.10352e-05 6.41681 6.10352e-05C5.70073 6.10352e-05 5.00454 0.235691 4.43566 0.670598C3.86678 1.10551 3.45681 1.71552 3.269 2.40654H0.875C0.642936 2.40654 0.420376 2.49872 0.256282 2.66282C0.0921872 2.82691 0 3.04947 0 3.28154C0 3.5136 0.0921872 3.73616 0.256282 3.90026C0.420376 4.06435 0.642936 4.15654 0.875 4.15654ZM6.41638 1.75029C6.71923 1.75029 7.01528 1.84009 7.26709 2.00835C7.51891 2.17661 7.71517 2.41575 7.83107 2.69555C7.94696 2.97535 7.97729 3.28324 7.9182 3.58027C7.85912 3.8773 7.71328 4.15015 7.49913 4.3643C7.28498 4.57844 7.01214 4.72428 6.71511 4.78337C6.41807 4.84245 6.11019 4.81212 5.83039 4.69623C5.55059 4.58033 5.31144 4.38407 5.14319 4.13225C4.97493 3.88044 4.88513 3.58439 4.88513 3.28154C4.88559 2.87557 5.04706 2.48636 5.33413 2.19929C5.62119 1.91223 6.0104 1.75075 6.41638 1.75029Z" fill="#1B1C1E"/>
<path d="M20.125 9.62421H17.731C17.5435 8.93304 17.1337 8.3228 16.5649 7.88772C15.996 7.45263 15.2998 7.21689 14.5836 7.21689C13.8675 7.21689 13.1712 7.45263 12.6024 7.88772C12.0335 8.3228 11.6237 8.93304 11.4362 9.62421H0.875C0.642936 9.62421 0.420376 9.7164 0.256282 9.88049C0.0921872 10.0446 0 10.2671 0 10.4992C0 10.7313 0.0921872 10.9538 0.256282 11.1179C0.420376 11.282 0.642936 11.3742 0.875 11.3742H11.4362C11.6237 12.0654 12.0335 12.6756 12.6024 13.1107C13.1712 13.5458 13.8675 13.7815 14.5836 13.7815C15.2998 13.7815 15.996 13.5458 16.5649 13.1107C17.1337 12.6756 17.5435 12.0654 17.731 11.3742H20.125C20.3571 11.3742 20.5796 11.282 20.7437 11.1179C20.9078 10.9538 21 10.7313 21 10.4992C21 10.2671 20.9078 10.0446 20.7437 9.88049C20.5796 9.7164 20.3571 9.62421 20.125 9.62421ZM14.5836 12.0305C14.2808 12.0305 13.9847 11.9407 13.7329 11.7724C13.4811 11.6041 13.2848 11.365 13.1689 11.0852C13.053 10.8054 13.0227 10.4975 13.0818 10.2005C13.1409 9.90345 13.2867 9.6306 13.5009 9.41646C13.715 9.20231 13.9879 9.05647 14.2849 8.99739C14.5819 8.9383 14.8898 8.96863 15.1696 9.08452C15.4494 9.20042 15.6886 9.39668 15.8568 9.6485C16.0251 9.90031 16.1149 10.1964 16.1149 10.4992C16.1144 10.9052 15.9529 11.2944 15.6659 11.5815C15.3788 11.8685 14.9896 12.03 14.5836 12.0305Z" fill="#1B1C1E"/>
<path d="M20.125 16.844H9.56462C9.37682 16.153 8.96685 15.543 8.39796 15.1081C7.82908 14.6732 7.13289 14.4376 6.41681 14.4376C5.70073 14.4376 5.00454 14.6732 4.43566 15.1081C3.86678 15.543 3.45681 16.153 3.269 16.844H0.875C0.642936 16.844 0.420376 16.9362 0.256282 17.1003C0.0921872 17.2644 0 17.487 0 17.719C0 17.9511 0.0921872 18.1736 0.256282 18.3377C0.420376 18.5018 0.642936 18.594 0.875 18.594H3.269C3.45681 19.285 3.86678 19.895 4.43566 20.33C5.00454 20.7649 5.70073 21.0005 6.41681 21.0005C7.13289 21.0005 7.82908 20.7649 8.39796 20.33C8.96685 19.895 9.37682 19.285 9.56462 18.594H20.125C20.3571 18.594 20.5796 18.5018 20.7437 18.3377C20.9078 18.1736 21 17.9511 21 17.719C21 17.487 20.9078 17.2644 20.7437 17.1003C20.5796 16.9362 20.3571 16.844 20.125 16.844ZM6.41638 19.2503C6.11352 19.2503 5.81747 19.1605 5.56566 18.9922C5.31385 18.824 5.11758 18.5848 5.00168 18.305C4.88579 18.0252 4.85546 17.7173 4.91455 17.4203C4.97363 17.1233 5.11947 16.8504 5.33362 16.6363C5.54777 16.4221 5.82061 16.2763 6.11764 16.2172C6.41468 16.1581 6.72256 16.1884 7.00236 16.3043C7.28216 16.4202 7.52131 16.6165 7.68956 16.8683C7.85782 17.1201 7.94763 17.4162 7.94763 17.719C7.94693 18.1249 7.78538 18.514 7.49837 18.801C7.21135 19.088 6.82227 19.2496 6.41638 19.2503Z" fill="#1B1C1E"/>
</g>
<defs>
<clipPath id="clip0_478_273">
<rect width="21" height="21" fill="white"/>
</clipPath>
</defs>
</svg>
