<svg width="31" height="30" viewBox="0 0 31 30" fill="none" xmlns="http://www.w3.org/2000/svg">
<path d="M25.8869 6.37062C24.3281 4.47937 22.1619 3.43811 19.7844 3.43811C18.3544 3.43811 16.9719 3.78559 15.7494 4.44809C14.5282 3.78559 13.1457 3.43811 11.7144 3.43811C9.33692 3.43811 7.16943 4.47937 5.61193 6.37062C3.91693 8.42812 3.21443 11.2381 3.73068 13.8869C4.94943 20.1319 11.3094 24.4944 13.9882 26.0794C14.5319 26.4007 15.1407 26.5619 15.7494 26.5619C16.3582 26.5619 16.9682 26.4019 17.5119 26.0794C20.1894 24.4932 26.5507 20.1319 27.7694 13.8869C28.2844 11.2381 27.5819 8.42812 25.8869 6.37062ZM25.9282 13.5281C24.8557 19.0269 19.0169 23.0094 16.5557 24.4656C16.0594 24.7606 15.4394 24.7594 14.9432 24.4656C12.4819 23.0094 6.64316 19.0269 5.57066 13.5281C5.15941 11.4231 5.71691 9.1931 7.05816 7.5631C8.25441 6.11185 9.90692 5.31311 11.7144 5.31311C12.9869 5.31311 14.2069 5.66311 15.2444 6.32561C15.5519 6.52186 15.9469 6.52186 16.2544 6.32561C17.2919 5.66311 18.5119 5.31311 19.7844 5.31311C21.5907 5.31311 23.2444 6.11185 24.4407 7.5631C25.7819 9.1931 26.3382 11.4219 25.9282 13.5281Z" fill="#1B1C1E"/>
</svg>
