<svg width="30" height="30" viewBox="0 0 30 30" fill="none" xmlns="http://www.w3.org/2000/svg">
<path d="M25.1369 6.3705C23.5781 4.47925 21.4119 3.43799 19.0344 3.43799C17.6044 3.43799 16.2219 3.78547 14.9994 4.44797C13.7782 3.78547 12.3957 3.43799 10.9644 3.43799C8.58692 3.43799 6.41943 4.47925 4.86193 6.3705C3.16693 8.428 2.46443 11.238 2.98068 13.8867C4.19943 20.1318 10.5594 24.4943 13.2382 26.0793C13.7819 26.4005 14.3907 26.5618 14.9994 26.5618C15.6082 26.5618 16.2182 26.4018 16.7619 26.0793C19.4394 24.493 25.8007 20.1318 27.0194 13.8867C27.5344 11.238 26.8319 8.428 25.1369 6.3705ZM25.1782 13.528C24.1057 19.0268 18.2669 23.0093 15.8057 24.4655C15.3094 24.7605 14.6894 24.7593 14.1932 24.4655C11.7319 23.0093 5.89316 19.0268 4.82066 13.528C4.40941 11.423 4.96691 9.19297 6.30816 7.56297C7.50441 6.11172 9.15692 5.31299 10.9644 5.31299C12.2369 5.31299 13.4569 5.66299 14.4944 6.32549C14.8019 6.52174 15.1969 6.52174 15.5044 6.32549C16.5419 5.66299 17.7619 5.31299 19.0344 5.31299C20.8407 5.31299 22.4944 6.11172 23.6907 7.56297C25.0319 9.19297 25.5882 11.4218 25.1782 13.528Z" fill="#1E4EED"/>
</svg>
