<svg width="25" height="29" viewBox="0 0 25 29" fill="none" xmlns="http://www.w3.org/2000/svg">
<path d="M4.85425 13.6101L4.8542 13.61C1.51059 8.20527 5.27333 1.20369 11.6264 1.01118C17.9798 0.818649 22.1612 7.57694 19.1518 13.1738L19.1518 13.1739L14.1314 22.512L14.0914 22.5864C13.285 23.9664 11.2824 24.0035 10.4299 22.6267L4.85425 13.6101Z" fill="#1B1C1E" stroke="#1B1C1E"/>
<path d="M12.5 27.4929C18.8513 27.4929 24 25.9913 24 24.139C24 22.2867 18.8513 20.7851 12.5 20.7851C6.14874 20.7851 1 22.2867 1 24.139C1 25.9913 6.14874 27.4929 12.5 27.4929Z" stroke="#1B1C1E" stroke-width="2" stroke-miterlimit="10"/>
<circle cx="11.8235" cy="9.68947" r="4.91176" fill="white" stroke="#1B1C1E"/>
</svg>
