<svg width="28" height="28" viewBox="0 0 28 28" fill="none" xmlns="http://www.w3.org/2000/svg">
<path d="M23.3333 4.72733C20.602 2.31693 17.0387 1.06606 13.4001 1.24032C9.76142 1.41457 6.33397 3.00023 3.84548 5.66061C1.35699 8.32099 0.00345359 11.8466 0.0722639 15.4887C0.141074 19.1309 1.62681 22.6028 4.21401 25.1673C5.30649 26.2386 6.7766 26.8371 8.30668 26.8333H19.7015C21.1503 26.853 22.5513 26.315 23.6145 25.3307C25.0133 23.9953 26.1216 22.3858 26.8701 20.6027C27.6187 18.8197 27.9914 16.9014 27.965 14.9677C27.9386 13.0341 27.5137 11.1266 26.7168 9.36466C25.9198 7.60268 24.768 6.02402 23.3333 4.72733ZM22.0127 23.6355C21.3809 24.2082 20.554 24.5175 19.7015 24.5H8.30668C7.38644 24.5029 6.50206 24.1433 5.84501 23.499C4.18076 21.8723 3.04102 19.7851 2.57229 17.5056C2.10356 15.2261 2.32726 12.8585 3.21464 10.7072C4.10201 8.5558 5.61251 6.71898 7.55198 5.43281C9.49145 4.14663 11.7713 3.46987 14.0984 3.48951C16.4255 3.50916 18.6935 4.22432 20.611 5.54306C22.5285 6.8618 24.0077 8.72386 24.8587 10.8899C25.7096 13.0559 25.8933 15.427 25.3861 17.6982C24.879 19.9695 23.7042 22.0372 22.0127 23.6355ZM23.3333 15.1667C23.3369 16.4097 23.09 17.6408 22.6073 18.7864C22.1246 19.9319 21.4161 20.9685 20.524 21.8342C20.3028 22.0508 20.0046 22.1706 19.695 22.1673C19.3854 22.164 19.0898 22.0379 18.8732 21.8167C18.6566 21.5954 18.5367 21.2972 18.54 20.9876C18.5433 20.678 18.6694 20.3824 18.8907 20.1658C23.7218 15.5505 19.5907 7.22167 12.999 8.239C12.8473 8.26091 12.6927 8.25271 12.5441 8.21488C12.3955 8.17705 12.2558 8.11032 12.133 8.01851C11.885 7.83308 11.7208 7.55673 11.6766 7.25025C11.6547 7.0985 11.6629 6.94391 11.7007 6.79533C11.7385 6.64674 11.8053 6.50706 11.8971 6.38426C11.9889 6.26147 12.104 6.15795 12.2358 6.07964C12.3676 6.00133 12.5136 5.94974 12.6653 5.92783C13.9893 5.74158 15.3379 5.84103 16.6202 6.21949C17.9026 6.59796 19.089 7.24666 20.0997 8.12196C21.1104 8.99726 21.922 10.0789 22.4797 11.294C23.0375 12.5091 23.3286 13.8296 23.3333 15.1667ZM9.10701 20.1647C9.32856 20.3813 9.45499 20.677 9.45849 20.9868C9.46199 21.2966 9.34227 21.5951 9.12568 21.8167C8.90909 22.0382 8.61335 22.1646 8.30354 22.1681C7.99373 22.1716 7.69522 22.0519 7.47368 21.8353C6.42153 20.8106 5.62701 19.5512 5.15514 18.1603C4.68327 16.7695 4.54747 15.2866 4.75884 13.8332C4.78075 13.6814 4.83234 13.5355 4.91065 13.4036C4.98897 13.2718 5.09248 13.1567 5.21528 13.0649C5.33807 12.9731 5.47775 12.9064 5.62634 12.8685C5.77493 12.8307 5.92951 12.8225 6.08126 12.8444C6.23302 12.8663 6.37897 12.9179 6.51079 12.9962C6.6426 13.0745 6.7577 13.178 6.84952 13.3008C6.94133 13.4236 7.00806 13.5633 7.04589 13.7119C7.08372 13.8605 7.09192 14.0151 7.07001 14.1668C6.9109 15.2564 7.01257 16.3682 7.36669 17.4109C7.7208 18.4536 8.31724 19.3973 9.10701 20.1647ZM16.3333 15.1667C16.3332 15.4987 16.2622 15.8269 16.125 16.1294C15.9879 16.4318 15.7877 16.7014 15.538 16.9203C15.2883 17.1392 14.9947 17.3022 14.6769 17.3986C14.3592 17.4949 14.0245 17.5223 13.6953 17.4789C13.366 17.4356 13.0499 17.3224 12.7679 17.1471C12.4859 16.9717 12.2446 16.7382 12.06 16.4621C11.8755 16.186 11.7521 15.8738 11.6979 15.5461C11.6438 15.2185 11.6602 14.8831 11.746 14.5623L7.34185 10.1582C7.12933 9.93813 7.01173 9.64343 7.01439 9.33753C7.01705 9.03163 7.13975 8.73902 7.35606 8.52271C7.57237 8.3064 7.86498 8.1837 8.17088 8.18105C8.47677 8.17839 8.77148 8.29598 8.99151 8.5085L13.3957 12.9127C13.7413 12.8219 14.1031 12.8114 14.4534 12.882C14.8037 12.9526 15.1333 13.1024 15.4168 13.3199C15.7003 13.5374 15.9303 13.8169 16.0891 14.137C16.248 14.4571 16.3315 14.8093 16.3333 15.1667Z" fill="black"/>
</svg>
