<svg width="16" height="16" viewBox="0 0 16 16" fill="none" xmlns="http://www.w3.org/2000/svg">
<g clip-path="url(#clip0_476_3292)">
<path d="M15.3334 7.33304C15.1566 7.33304 14.987 7.2628 14.862 7.13778C14.737 7.01276 14.6667 6.84319 14.6667 6.66638C14.6653 5.25232 14.103 3.89659 13.1031 2.8967C12.1032 1.89681 10.7475 1.33445 9.33341 1.33304C9.1566 1.33304 8.98703 1.2628 8.86201 1.13778C8.73698 1.01276 8.66674 0.843186 8.66674 0.666375C8.66674 0.489564 8.73698 0.319995 8.86201 0.19497C8.98703 0.0699462 9.1566 -0.000291733 9.33341 -0.000291733C11.1009 0.00164933 12.7955 0.704652 14.0453 1.95447C15.2951 3.2043 15.9981 4.89886 16.0001 6.66638C16.0001 6.84319 15.9298 7.01276 15.8048 7.13778C15.6798 7.2628 15.5102 7.33304 15.3334 7.33304ZM13.3334 6.66638C13.3334 5.60551 12.912 4.58809 12.1618 3.83795C11.4117 3.0878 10.3943 2.66637 9.33341 2.66637C9.1566 2.66637 8.98703 2.73661 8.86201 2.86164C8.73698 2.98666 8.66674 3.15623 8.66674 3.33304C8.66674 3.50985 8.73698 3.67942 8.86201 3.80445C8.98703 3.92947 9.1566 3.99971 9.33341 3.99971C10.0407 3.99971 10.7189 4.28066 11.219 4.78076C11.7191 5.28085 12.0001 5.95913 12.0001 6.66638C12.0001 6.84319 12.0703 7.01276 12.1953 7.13778C12.3204 7.2628 12.4899 7.33304 12.6667 7.33304C12.8436 7.33304 13.0131 7.2628 13.1381 7.13778C13.2632 7.01276 13.3334 6.84319 13.3334 6.66638ZM14.7887 14.7757L15.3954 14.0764C15.7815 13.689 15.9984 13.1643 15.9984 12.6174C15.9984 12.0704 15.7815 11.5458 15.3954 11.1584C15.3747 11.1377 13.7707 9.90371 13.7707 9.90371C13.3858 9.53726 12.8744 9.33321 12.3429 9.33396C11.8115 9.3347 11.3007 9.54018 10.9167 9.90771L9.64608 10.9784C8.60886 10.5491 7.66667 9.91916 6.8736 9.12472C6.08053 8.33028 5.45222 7.387 5.02474 6.34904L6.09141 5.08238C6.45922 4.69849 6.66494 4.18763 6.66581 3.65598C6.66668 3.12433 6.46263 2.61279 6.09608 2.22771C6.09608 2.22771 4.86074 0.625708 4.84008 0.605042C4.45971 0.222207 3.944 0.00438961 3.40436 -0.00134854C2.86472 -0.0070867 2.3445 0.199715 1.95608 0.574375L1.18941 1.24104C-3.33993 6.49571 6.41341 16.1737 11.8414 15.9997C12.3895 16.0029 12.9327 15.8962 13.4389 15.686C13.9452 15.4758 14.4041 15.1662 14.7887 14.7757Z" fill="#1B1C1E"/>
</g>
<defs>
<clipPath id="clip0_476_3292">
<rect width="16" height="16" fill="white"/>
</clipPath>
</defs>
</svg>
