<svg width="30" height="30" viewBox="0 0 30 30" fill="none" xmlns="http://www.w3.org/2000/svg">
<path d="M18.75 2.8125H11.25C6.5975 2.8125 2.8125 6.5975 2.8125 11.25V18.75C2.8125 23.4025 6.5975 27.1875 11.25 27.1875H18.75C23.4025 27.1875 27.1875 23.4025 27.1875 18.75V11.25C27.1875 6.5975 23.4025 2.8125 18.75 2.8125ZM25.3125 18.75C25.3125 22.3688 22.3688 25.3125 18.75 25.3125H11.25C7.63125 25.3125 4.6875 22.3688 4.6875 18.75V11.25C4.6875 7.63125 7.63125 4.6875 11.25 4.6875H18.75C22.3688 4.6875 25.3125 7.63125 25.3125 11.25V18.75ZM20.9375 15C20.9375 15.5175 20.5175 15.9375 20 15.9375H15.9375V20C15.9375 20.5175 15.5175 20.9375 15 20.9375C14.4825 20.9375 14.0625 20.5175 14.0625 20V15.9375H10C9.4825 15.9375 9.0625 15.5175 9.0625 15C9.0625 14.4825 9.4825 14.0625 10 14.0625H14.0625V10C14.0625 9.4825 14.4825 9.0625 15 9.0625C15.5175 9.0625 15.9375 9.4825 15.9375 10V14.0625H20C20.5175 14.0625 20.9375 14.4825 20.9375 15Z" fill="#1E4EED"/>
</svg>
