<svg width="31" height="30" viewBox="0 0 31 30" fill="none" xmlns="http://www.w3.org/2000/svg">
<path d="M19.25 2.8125H11.75C7.0975 2.8125 3.3125 6.5975 3.3125 11.25V18.75C3.3125 23.4025 7.0975 27.1875 11.75 27.1875H19.25C23.9025 27.1875 27.6875 23.4025 27.6875 18.75V11.25C27.6875 6.5975 23.9025 2.8125 19.25 2.8125ZM25.8125 18.75C25.8125 22.3688 22.8688 25.3125 19.25 25.3125H11.75C8.13125 25.3125 5.1875 22.3688 5.1875 18.75V11.25C5.1875 7.63125 8.13125 4.6875 11.75 4.6875H19.25C22.8688 4.6875 25.8125 7.63125 25.8125 11.25V18.75ZM21.4375 15C21.4375 15.5175 21.0175 15.9375 20.5 15.9375H16.4375V20C16.4375 20.5175 16.0175 20.9375 15.5 20.9375C14.9825 20.9375 14.5625 20.5175 14.5625 20V15.9375H10.5C9.9825 15.9375 9.5625 15.5175 9.5625 15C9.5625 14.4825 9.9825 14.0625 10.5 14.0625H14.5625V10C14.5625 9.4825 14.9825 9.0625 15.5 9.0625C16.0175 9.0625 16.4375 9.4825 16.4375 10V14.0625H20.5C21.0175 14.0625 21.4375 14.4825 21.4375 15Z" fill="#1B1C1E"/>
</svg>
