<svg width="30" height="30" viewBox="0 0 30 30" fill="none" xmlns="http://www.w3.org/2000/svg">
<path d="M15 2.8125C8.28 2.8125 2.8125 8.28 2.8125 15C2.8125 21.72 8.28 27.1875 15 27.1875C21.72 27.1875 27.1875 21.72 27.1875 15C27.1875 8.28 21.72 2.8125 15 2.8125ZM15 25.3125C9.31375 25.3125 4.6875 20.6862 4.6875 15C4.6875 9.31375 9.31375 4.6875 15 4.6875C20.6862 4.6875 25.3125 9.31375 25.3125 15C25.3125 20.6862 20.6862 25.3125 15 25.3125ZM20.9375 10C20.9375 10.5175 20.5175 10.9375 20 10.9375H10C9.4825 10.9375 9.0625 10.5175 9.0625 10C9.0625 9.4825 9.4825 9.0625 10 9.0625H20C20.5175 9.0625 20.9375 9.4825 20.9375 10ZM19.0625 15C19.0625 15.5175 18.6425 15.9375 18.125 15.9375H11.875C11.3575 15.9375 10.9375 15.5175 10.9375 15C10.9375 14.4825 11.3575 14.0625 11.875 14.0625H18.125C18.6425 14.0625 19.0625 14.4825 19.0625 15ZM17.1875 20C17.1875 20.5175 16.7675 20.9375 16.25 20.9375H13.75C13.2325 20.9375 12.8125 20.5175 12.8125 20C12.8125 19.4825 13.2325 19.0625 13.75 19.0625H16.25C16.7675 19.0625 17.1875 19.4825 17.1875 20Z" fill="#41416E"/>
</svg>
