<svg width="28" height="24" viewBox="0 0 28 24" fill="none" xmlns="http://www.w3.org/2000/svg">
<path d="M14 10.5885L23.9787 22.3579C25.7397 24.1233 28.205 21.8871 26.3267 20.004C24.4483 18.1209 18.3046 12.7462 15.174 10" stroke="#1E4EED" stroke-width="1.5"/>
<path d="M17 22.9998H1C1 21.224 1.88431 20.2251 3.13333 20.2251H14.8667C16.5733 20.2251 17 21.8899 17 22.9998Z" stroke="#1E4EED" stroke-width="1.5"/>
<path d="M19.2127 6.46907L14.8395 1.6051C13.7097 0.3588 11.8594 1.80803 13.1019 3.17973C13.6118 3.74237 16.9859 7.45024 17.5018 8.01953C18.4592 9.07601 20.1628 7.51747 19.2127 6.46907Z" stroke="#1E4EED" stroke-width="1.5"/>
<path d="M11.0264 13.5641L11.5724 14.1228C12.5225 15.1712 10.819 16.7298 9.86156 15.6733C9.34565 15.104 5.97159 11.3961 5.46171 10.8335C4.21918 9.46177 6.06948 8.01255 7.19927 9.25885L11.0264 13.5641ZM11.0264 13.5641L17.0299 7.56059" stroke="#1E4EED" stroke-width="1.5"/>
<path d="M7.33902 10.087L13.7547 3.72914" stroke="#1E4EED" stroke-width="1.5"/>
</svg>
