<svg width="30" height="30" viewBox="0 0 30 30" fill="none" xmlns="http://www.w3.org/2000/svg">
<path d="M26.9125 25.5862L21.045 19.7188C22.5375 17.93 23.4375 15.6313 23.4375 13.125C23.4375 7.43875 18.8113 2.8125 13.125 2.8125C7.43875 2.8125 2.8125 7.43875 2.8125 13.125C2.8125 18.8112 7.43875 23.4375 13.125 23.4375C15.6313 23.4375 17.93 22.5376 19.7187 21.0451L25.5862 26.9125C25.7687 27.095 26.0087 27.1875 26.2487 27.1875C26.4887 27.1875 26.7287 27.0963 26.9112 26.9125C27.2787 26.5463 27.2787 25.9525 26.9125 25.5862ZM4.6875 13.125C4.6875 8.4725 8.4725 4.6875 13.125 4.6875C17.7775 4.6875 21.5625 8.4725 21.5625 13.125C21.5625 17.7775 17.7775 21.5625 13.125 21.5625C8.4725 21.5625 4.6875 17.7775 4.6875 13.125Z" fill="#1E4EED"/>
</svg>
