<svg width="21" height="21" viewBox="0 0 21 21" fill="none" xmlns="http://www.w3.org/2000/svg">
<g clip-path="url(#clip0_601_4381)">
<path d="M20.7547 19.5127L15.5393 14.2974C18.5987 10.5556 18.0456 5.04225 14.3039 1.98289C10.5621 -1.07646 5.04876 -0.52341 1.98936 3.21832C-1.07004 6.96005 -0.516899 12.4735 3.22483 15.5329C6.44776 18.1681 11.081 18.1681 14.3039 15.5329L19.5192 20.7482C19.8663 21.0834 20.4195 21.0738 20.7547 20.7267C21.0817 20.3881 21.0817 19.8513 20.7547 19.5127ZM1.78838 8.77184C1.78838 4.91141 4.91788 1.78191 8.77831 1.78191C12.6387 1.78191 15.7682 4.91141 15.7682 8.77184C15.7682 12.6323 12.6387 15.7618 8.77831 15.7618C4.91968 15.7574 1.79273 12.6305 1.78838 8.77184ZM10.5258 5.27685C9.8731 5.27981 9.24683 5.53529 8.77835 5.98983C8.30987 5.53534 7.6836 5.27981 7.03088 5.27685C5.53656 5.32862 4.36499 6.57828 4.40965 8.07281C4.40965 9.82028 6.19297 11.6228 7.68967 12.8259C8.32677 13.3333 9.22993 13.3333 9.86703 12.8259C11.3637 11.6228 13.147 9.82028 13.147 8.07281C13.1917 6.57828 12.0201 5.32862 10.5258 5.27685ZM8.78356 11.463C7.16365 10.1611 6.15708 8.8592 6.15708 8.07285C6.11348 7.5435 6.50227 7.07691 7.03084 7.02437C7.55936 7.07691 7.94819 7.5435 7.90459 8.07285C7.90459 8.5554 8.29576 8.9466 8.77835 8.9466C9.2609 8.9466 9.6521 8.55544 9.6521 8.07285C9.60851 7.5435 9.99729 7.07691 10.5259 7.02437C11.0544 7.07691 11.4432 7.5435 11.3996 8.07285C11.3995 8.8592 10.393 10.1611 8.78356 11.463Z" fill="white"/>
</g>
<defs>
<clipPath id="clip0_601_4381">
<rect width="21" height="21" fill="white"/>
</clipPath>
</defs>
</svg>
