<svg width="29" height="28" viewBox="0 0 29 28" fill="none" xmlns="http://www.w3.org/2000/svg">
<g clip-path="url(#clip0_478_822)">
<path d="M27.1337 22.225L25.9904 21.5833C26.1654 21.0233 26.2937 20.44 26.2937 19.8333C26.2937 19.2267 26.1771 18.6317 25.9904 18.0833L27.1337 17.4417C27.6937 17.1267 27.8921 16.415 27.5888 15.855C27.2738 15.295 26.5621 15.085 26.0021 15.4L24.8587 16.0417C24.0304 15.085 22.9104 14.385 21.6271 14.1167V12.8333C21.6271 12.1917 21.1021 11.6667 20.4604 11.6667C19.8187 11.6667 19.2937 12.1917 19.2937 12.8333V14.1167C18.0104 14.3733 16.8904 15.085 16.0621 16.0417L14.9187 15.4C14.3587 15.085 13.6471 15.2833 13.3321 15.855C13.0171 16.415 13.2154 17.1267 13.7871 17.4417L14.9304 18.0833C14.7554 18.6433 14.6271 19.2267 14.6271 19.8333C14.6271 20.44 14.7437 21.035 14.9304 21.5833L13.7871 22.225C13.2271 22.54 13.0287 23.2517 13.3321 23.8117C13.5421 24.1967 13.9387 24.4067 14.3471 24.4067C14.5454 24.4067 14.7321 24.36 14.9187 24.255L16.0621 23.6133C16.8904 24.57 18.0104 25.27 19.2937 25.5383V26.8217C19.2937 27.4633 19.8187 27.9883 20.4604 27.9883C21.1021 27.9883 21.6271 27.4633 21.6271 26.8217V25.5383C22.9104 25.2817 24.0304 24.57 24.8587 23.6133L26.0021 24.255C26.1771 24.36 26.3754 24.4067 26.5737 24.4067C26.9821 24.4067 27.3787 24.1967 27.5888 23.8117C27.9038 23.2517 27.7054 22.54 27.1337 22.225ZM20.4487 23.3333C18.5237 23.3333 16.9487 21.7583 16.9487 19.8333C16.9487 17.9083 18.5237 16.3333 20.4487 16.3333C22.3737 16.3333 23.9487 17.9083 23.9487 19.8333C23.9487 21.7583 22.3737 23.3333 20.4487 23.3333ZM13.1804 11.9583L14.3237 12.6C14.4987 12.705 14.6971 12.7517 14.8954 12.7517C15.3037 12.7517 15.7004 12.5417 15.9104 12.1567C16.2254 11.5967 16.0271 10.885 15.4554 10.57L14.3121 9.92833C14.4871 9.36833 14.6154 8.785 14.6154 8.17833C14.6154 7.57167 14.4987 6.97667 14.3121 6.42833L15.4554 5.78667C16.0154 5.47167 16.2137 4.76 15.9104 4.2C15.5954 3.64 14.8837 3.43 14.3237 3.745L13.1804 4.38667C12.3521 3.43 11.2321 2.73 9.94875 2.46167V1.16667C9.94875 0.525 9.42375 0 8.78208 0C8.14042 0 7.61542 0.525 7.61542 1.16667V2.45C6.33208 2.70667 5.21208 3.41833 4.38375 4.375L3.24041 3.73333C2.68041 3.41833 1.96875 3.61667 1.65375 4.18833C1.33875 4.74833 1.53708 5.46 2.10875 5.775L3.25208 6.41667C3.07708 6.97667 2.94875 7.56 2.94875 8.16667C2.94875 8.77333 3.06541 9.36833 3.25208 9.91667L2.10875 10.5583C1.54875 10.8733 1.35041 11.585 1.65375 12.145C1.86375 12.53 2.26041 12.74 2.66875 12.74C2.86708 12.74 3.05375 12.6933 3.24041 12.5883L4.38375 11.9467C5.21208 12.9033 6.33208 13.6033 7.61542 13.8717V15.155C7.61542 15.7967 8.14042 16.3217 8.78208 16.3217C9.42375 16.3217 9.94875 15.7967 9.94875 15.155V13.8717C11.2321 13.615 12.3521 12.9033 13.1804 11.9467V11.9583ZM8.78208 11.6667C6.85708 11.6667 5.28208 10.0917 5.28208 8.16667C5.28208 6.24167 6.85708 4.66667 8.78208 4.66667C10.7071 4.66667 12.2821 6.24167 12.2821 8.16667C12.2821 10.0917 10.7071 11.6667 8.78208 11.6667Z" fill="black"/>
</g>
<defs>
<clipPath id="clip0_478_822">
<rect width="28" height="28" fill="white" transform="translate(0.615417)"/>
</clipPath>
</defs>
</svg>
