<svg width="28" height="28" viewBox="0 0 28 28" fill="none" xmlns="http://www.w3.org/2000/svg">
<g clip-path="url(#clip0_478_688)">
<path d="M4.66667 12.8333C2.08833 12.8333 0 10.745 0 8.16667V4.66667C0 2.08833 2.08833 0 4.66667 0C7.245 0 9.33333 2.08833 9.33333 4.66667V8.16667C9.33333 10.745 7.245 12.8333 4.66667 12.8333ZM4.66667 2.33333C3.38333 2.33333 2.33333 3.38333 2.33333 4.66667V8.16667C2.33333 9.45 3.38333 10.5 4.66667 10.5C5.95 10.5 7 9.45 7 8.16667V4.66667C7 3.38333 5.95 2.33333 4.66667 2.33333ZM11.375 26.7167C11.8067 26.2383 11.76 25.5033 11.2817 25.0717C10.7917 24.6283 10.5 23.9983 10.5 23.3333V18.6667C10.5 18.025 9.975 17.5 9.33333 17.5C8.69167 17.5 8.16667 18.025 8.16667 18.6667V23.3333C8.16667 24.6633 8.73833 25.9233 9.71833 26.81C9.94 27.0083 10.22 27.1017 10.5 27.1017C10.815 27.1017 11.1417 26.9733 11.375 26.7167ZM16.3333 10.5V1.16667C16.3333 0.7 16.0533 0.268333 15.61 0.0933333C15.1783 -0.0816667 14.6767 0.0116667 14.3383 0.35L11.4917 3.19667C11.0367 3.65167 11.0367 4.38667 11.4917 4.84167C11.9467 5.29667 12.6817 5.29667 13.1367 4.84167L14 3.97833V10.5C14 11.1417 14.525 11.6667 15.1667 11.6667C15.8083 11.6667 16.3333 11.1417 16.3333 10.5ZM5.83333 26.8333V16.3333C5.83333 15.8667 5.55333 15.435 5.11 15.26C4.67833 15.085 4.17667 15.1783 3.83833 15.5167L0.991667 18.3633C0.536667 18.8183 0.536667 19.5533 0.991667 20.0083C1.44667 20.4633 2.18167 20.4633 2.63667 20.0083L3.5 19.145V26.8333C3.5 27.475 4.025 28 4.66667 28C5.30833 28 5.83333 27.475 5.83333 26.8333ZM19.8333 28C15.33 28 11.6667 24.3367 11.6667 19.8333C11.6667 15.33 15.33 11.6667 19.8333 11.6667C24.3367 11.6667 28 15.33 28 19.8333C28 24.3367 24.3367 28 19.8333 28ZM19.8333 14C16.6133 14 14 16.6133 14 19.8333C14 23.0533 16.6133 25.6667 19.8333 25.6667C23.0533 25.6667 25.6667 23.0533 25.6667 19.8333C25.6667 16.6133 23.0533 14 19.8333 14ZM21 22.645L24.1617 19.4833C24.6167 19.0283 24.6167 18.2933 24.1617 17.8383C23.7067 17.3833 22.9717 17.3833 22.5167 17.8383L19.355 21L17.36 19.005C16.905 18.55 16.17 18.55 15.715 19.005C15.26 19.46 15.26 20.195 15.715 20.65L17.71 22.645C18.165 23.1 18.76 23.3217 19.355 23.3217C19.95 23.3217 20.545 23.1 21 22.645Z" fill="black"/>
</g>
<defs>
<clipPath id="clip0_478_688">
<rect width="28" height="28" fill="white"/>
</clipPath>
</defs>
</svg>
