<svg width="28" height="28" viewBox="0 0 28 28" fill="none" xmlns="http://www.w3.org/2000/svg">
<g clip-path="url(#clip0_478_717)">
<path d="M22.1667 2.33333H21V1.16667C21 0.857247 20.8771 0.560501 20.6583 0.341709C20.4395 0.122916 20.1428 0 19.8333 0C19.5239 0 19.2272 0.122916 19.0084 0.341709C18.7896 0.560501 18.6667 0.857247 18.6667 1.16667V2.33333H9.33333V1.16667C9.33333 0.857247 9.21042 0.560501 8.99162 0.341709C8.77283 0.122916 8.47609 0 8.16667 0C7.85725 0 7.5605 0.122916 7.34171 0.341709C7.12292 0.560501 7 0.857247 7 1.16667V2.33333H5.83333C4.28681 2.33519 2.80415 2.95036 1.71059 4.04392C0.617029 5.13748 0.0018525 6.62014 0 8.16667L0 22.1667C0.0018525 23.7132 0.617029 25.1959 1.71059 26.2894C2.80415 27.383 4.28681 27.9981 5.83333 28H22.1667C23.7132 27.9981 25.1959 27.383 26.2894 26.2894C27.383 25.1959 27.9981 23.7132 28 22.1667V8.16667C27.9981 6.62014 27.383 5.13748 26.2894 4.04392C25.1959 2.95036 23.7132 2.33519 22.1667 2.33333ZM2.33333 8.16667C2.33333 7.23841 2.70208 6.34817 3.35846 5.69179C4.01484 5.03542 4.90508 4.66667 5.83333 4.66667H22.1667C23.0949 4.66667 23.9852 5.03542 24.6415 5.69179C25.2979 6.34817 25.6667 7.23841 25.6667 8.16667V9.33333H2.33333V8.16667ZM22.1667 25.6667H5.83333C4.90508 25.6667 4.01484 25.2979 3.35846 24.6415C2.70208 23.9852 2.33333 23.0949 2.33333 22.1667V11.6667H25.6667V22.1667C25.6667 23.0949 25.2979 23.9852 24.6415 24.6415C23.9852 25.2979 23.0949 25.6667 22.1667 25.6667Z" fill="black"/>
<path d="M14 19.25C14.9665 19.25 15.75 18.4665 15.75 17.5C15.75 16.5335 14.9665 15.75 14 15.75C13.0335 15.75 12.25 16.5335 12.25 17.5C12.25 18.4665 13.0335 19.25 14 19.25Z" fill="black"/>
<path d="M8.16666 19.25C9.13315 19.25 9.91666 18.4665 9.91666 17.5C9.91666 16.5335 9.13315 15.75 8.16666 15.75C7.20016 15.75 6.41666 16.5335 6.41666 17.5C6.41666 18.4665 7.20016 19.25 8.16666 19.25Z" fill="black"/>
<path d="M19.8333 19.25C20.7998 19.25 21.5833 18.4665 21.5833 17.5C21.5833 16.5335 20.7998 15.75 19.8333 15.75C18.8668 15.75 18.0833 16.5335 18.0833 17.5C18.0833 18.4665 18.8668 19.25 19.8333 19.25Z" fill="black"/>
</g>
<defs>
<clipPath id="clip0_478_717">
<rect width="28" height="28" fill="white"/>
</clipPath>
</defs>
</svg>
