<svg width="92" height="62" viewBox="0 0 92 62" fill="none" xmlns="http://www.w3.org/2000/svg">
<path d="M37.2662 8.35328C36.9037 8.76225 36.2274 8.99675 35.6944 9.00075C35.668 9.01916 35.7424 9.1184 35.7856 9.14001C36.269 9.37611 37.7785 9.60181 38.4467 9.80749C40.1106 10.3189 41.913 11.096 43.4312 11.942C44.1227 12.327 46.3829 13.9933 46.9295 13.9933C47.4762 13.9933 49.2513 12.7391 49.8724 12.4046C55.5323 9.3545 62.6842 7.85467 68.962 9.80829C78.983 12.9264 76.4868 23.1843 67.5238 25.6101C61.6965 27.1876 55.7981 25.0755 50.96 21.8854C49.9404 21.2131 48.4454 19.8181 47.4866 19.3499C47.2705 19.2443 47.0928 19.1498 46.8383 19.1618C46.3085 19.1858 44.5245 20.7025 43.9531 21.0914C38.6901 24.6786 32.8012 27.4341 26.2432 25.8871C20.9682 24.6425 15.9093 19.8005 19.6764 14.295C21.9438 10.9808 25.386 10.3421 28.9227 9.21124C30.9364 8.56697 33.1237 6.10353 34.9261 4.76777C37.8201 2.62127 41.2623 0.594812 44.9095 0.143421C52.6375 -0.813782 59.7421 3.1847 65.9335 7.24561C58.5496 7.04073 50.7039 4.93024 43.741 8.35488C44.6782 6.12674 46.0163 4.08348 47.5298 2.20909C47.4417 2.07544 47.3521 2.08104 47.2128 2.06583C45.6602 1.89616 43.6481 2.2219 42.1491 2.65088C38.5228 3.68891 35.2246 6.09073 32.2745 8.35488H37.2679L37.2662 8.35328ZM47.3457 5.48727C48.6262 5.39603 49.9204 5.26878 51.1569 4.90703C51.8092 4.71655 52.9128 4.52847 52.1069 3.73293C51.461 3.09506 50.0012 2.15547 49.076 2.36516C48.3045 2.54043 47.5938 4.77577 47.3457 5.48727ZM43.0919 16.5799C41.6265 15.8973 40.2803 14.7328 38.8421 14.0325C34.6547 11.9948 26.9547 11.6331 23.7181 15.5603C20.4816 19.4876 25.0483 23.0979 28.9908 23.3236C34.0553 23.6133 39.2719 19.462 43.0911 16.5791L43.0919 16.5799ZM61.6589 13.1865C59.0378 13.3442 56.0133 14.1389 53.5619 15.0753C53.0025 15.289 51.5195 15.8684 51.2738 16.3967C50.9536 17.0866 52.8224 18.1846 53.3266 18.5024C57.1962 20.9386 62.0151 23.1451 66.6266 21.4796C69.4614 20.456 73.1894 16.7728 69.3446 14.415C67.2389 13.1233 64.0695 13.0425 61.6581 13.1873L61.6589 13.1865Z" fill="#E0E0E0"/>
<path d="M48.4546 35.4316L48.918 40.6074L51.6911 35.4316H55.5752L53.6327 44.8588H50.3041L51.5983 38.7602L48.1376 44.7732L46.0503 44.8596L45.3573 38.4809L44.0159 44.8588H42.6289L44.5705 35.4316H48.4546Z" fill="#E0E0E0"/>
<path d="M27.7417 34.8777L26.9101 39.406C27.7849 38.5568 29.4144 37.9358 30.5092 38.7193C31.2823 39.2723 31.0775 40.007 30.951 40.8114C30.7461 42.1127 30.3059 43.3901 30.1267 44.7002L30.0074 44.8587H27.0021C27.2174 43.5173 27.8329 41.8854 27.9257 40.5593C28.0106 39.3372 26.9965 39.6581 26.5844 40.4208L25.5687 44.8587H22.5635L24.69 34.8777H27.7417Z" fill="#E0E0E0"/>
<path d="M13.3164 47.3538L15.17 38.4861L17.6534 38.4909C17.7199 38.7446 17.7687 39.0191 17.8463 39.2704C17.8655 39.3337 17.8175 39.4785 17.9856 39.4049C18.1192 39.3465 18.4554 38.9823 18.6507 38.8679C19.7247 38.2364 21.8528 37.9779 22.2234 39.5153C22.5939 41.0528 21.9841 44.0572 20.5026 44.7848C19.355 45.3482 17.8743 44.9112 17.11 43.934L16.3689 47.3538H13.3172H13.3164ZM18.7419 39.7995C18.3737 39.8123 17.9456 40.182 17.8183 40.531C17.7319 40.7671 17.2773 42.896 17.2933 43.0552C17.3085 43.2033 17.5894 43.5042 17.7287 43.5466C18.4594 43.7683 18.8643 42.6398 19.0044 42.0868C19.1189 41.633 19.5246 39.773 18.7419 39.8003V39.7995Z" fill="#E0E0E0"/>
<path d="M0.000801119 44.8587L4.24819 35.5644C4.32902 35.4444 4.44667 35.4444 4.57313 35.4276C5.55194 35.2955 6.83808 35.526 7.85051 35.442L8.87814 44.8587C7.69844 44.8635 6.54356 45.01 5.36306 44.8587L5.16858 42.5578L2.39461 42.605L1.34056 44.8579H0L0.000801119 44.8587ZM3.0981 41.4389H4.85484C4.88846 41.4389 5.00371 41.3437 5.07174 41.3317C4.9797 40.1584 4.89886 38.9683 4.80923 37.7862C4.79882 37.6477 4.88046 37.5213 4.67077 37.5565L2.99886 41.25L3.0981 41.4381V41.4389Z" fill="#E0E0E0"/>
<path d="M29.498 60.9398L31.0827 53.3734L31.206 53.355C34.3521 53.4831 37.6471 52.4242 37.2541 56.9077C37.078 58.9166 35.6174 60.9398 33.4285 60.9398H29.4988H29.498ZM32.2712 60.1083C33.8639 60.3452 34.3505 57.9866 34.5562 56.8005C34.653 56.2418 34.8699 54.9229 34.6514 54.4483C34.4529 54.0169 33.8687 54.2378 33.4773 54.1978L32.2712 60.1083Z" fill="#E0E0E0"/>
<path d="M44.9414 60.9405L46.5701 53.3565C47.9675 53.5102 49.8755 53.0932 51.188 53.5422C52.7911 54.0912 52.5134 56.2578 51.0456 56.7836L51.1024 56.9725C52.2869 57.4334 52.1709 59.1558 51.4145 59.9697C50.9527 60.4667 49.7226 60.9405 49.0567 60.9405H44.9422H44.9414ZM48.4549 56.5035C50.0676 57.0381 50.7487 53.7927 48.9335 54.2113L48.4549 56.5035ZM47.7154 60.201C49.4145 60.602 50.2644 56.9556 48.2596 57.3902L47.7154 60.201Z" fill="#E0E0E0"/>
<path d="M73.125 38.3242C74.5224 38.1881 76.7073 38.3394 77.1867 39.9401C77.7718 41.8945 76.9378 44.1026 74.921 44.7397C73.1394 45.3031 70.0766 45.3039 69.4907 43.103C68.7896 40.4659 70.5696 38.5723 73.1242 38.3242H73.125ZM73.7701 39.3294C72.9738 39.4319 72.5288 41.2855 72.4295 41.9729C72.3575 42.4716 72.1534 44.3676 73.117 43.9586C74.0806 43.5496 74.376 40.6252 74.2575 39.7248C74.2159 39.4055 74.1038 39.2862 73.7701 39.3294Z" fill="#E0E0E0"/>
<path d="M59.0705 38.3244C60.4879 38.1867 62.6432 38.3196 63.1322 39.9403C63.722 41.8955 62.8849 44.102 60.8664 44.7399C59.0945 45.3001 56.0236 45.3049 55.4329 43.1064C54.7254 40.4749 56.5334 38.5709 59.0705 38.3236V38.3244ZM59.7147 39.3296C58.9936 39.4449 58.5903 40.8855 58.4702 41.5137C58.371 42.0356 58.0861 43.9083 58.788 44.0124C59.3514 43.9892 59.6643 43.3441 59.834 42.8759C60.0741 42.214 60.4423 40.0891 60.1533 39.5001C60.0645 39.3184 59.8964 39.3008 59.7156 39.3296H59.7147Z" fill="#E0E0E0"/>
<path d="M32.2729 40.3302C32.541 39.7531 32.2969 39.1873 32.9476 38.8328C34.0657 38.2237 36.5195 38.1741 37.7288 38.5278C40.4708 39.3298 38.55 42.9289 38.3635 44.8465H36.0305L35.6487 43.9349C34.822 44.7537 33.6159 45.2795 32.4586 44.9041C30.9764 44.4239 30.9091 42.3622 32.2089 41.6067C32.6379 41.357 33.7879 40.9777 34.2601 40.9777H36.1561C36.838 39.1377 34.934 38.5999 34.4914 40.331H32.2721L32.2729 40.3302ZM35.9713 41.6243C35.1845 41.5867 34.0873 42.0237 34.1289 42.9569C34.1481 43.3747 34.4618 43.698 34.8836 43.6412C35.8112 43.5155 35.9104 42.3695 35.9713 41.6243Z" fill="#E0E0E0"/>
<path d="M89.7054 40.3209C89.7534 39.4941 89.1028 38.8242 88.5441 39.687C87.7982 40.8395 90.1152 40.9635 90.7963 41.3101C91.8375 41.8399 91.9368 43.3598 91.1652 44.1561C89.9359 45.4254 86.3744 45.0909 84.8018 44.5755L85.1283 43.0052L87.1067 43.01C86.7394 44.5579 89.0107 44.1345 88.5385 43.1053C88.152 42.2625 85.767 42.6347 85.5421 41.0156C85.2115 38.6274 88.0151 38.1624 89.8215 38.3088C90.144 38.3352 91.8343 38.6242 91.9 38.9067L91.551 40.2905L89.7046 40.3209H89.7054Z" fill="#E0E0E0"/>
<path d="M14.6115 34.8777L12.5771 44.8587H9.52539L11.5598 34.8777H14.6115Z" fill="#E0E0E0"/>
<path d="M56.2223 60.9401L55.951 59.0393L53.9102 59.0449C53.2011 59.8084 53.3347 61.5387 51.8789 60.8016L55.4332 53.3545L58.1599 53.3665L58.9995 60.7096C59.0099 60.7872 58.9035 60.9393 58.8578 60.9393H56.2223V60.9401ZM54.2807 58.1677H55.8062C55.8798 58.1677 55.979 57.946 55.9494 57.8492L55.6213 55.0248L54.2807 58.1677Z" fill="#E0E0E0"/>
<path d="M41.6117 53.3616L40.4433 58.9679C40.424 60.146 42.2424 60.2381 42.7618 59.3625C43.547 57.4817 43.6734 55.34 44.2136 53.3736L45.3093 53.4064C44.8347 55.0535 44.6706 56.8462 44.1936 58.4837C43.5974 60.5302 42.2576 61.1368 40.1743 61.0368C37.498 60.9088 37.6781 59.553 38.0326 57.4089C38.2479 56.1059 38.6609 54.8286 38.857 53.52L38.9762 53.3616H41.6117Z" fill="#E0E0E0"/>
<path d="M68.798 36.449L68.4275 38.4819H69.5368L69.2951 39.5039L68.1594 39.5079C68.117 40.4075 67.2094 42.8541 67.4295 43.5929C67.5599 44.0298 68.2314 43.7113 68.3875 43.9322C68.3106 44.2211 68.3483 44.8886 68.0129 44.9518C67.6776 45.015 67.0141 44.9446 66.6211 44.9462C66.4499 44.9462 66.285 45.0359 66.1529 45.0335C62.9804 44.9846 64.9636 41.3007 65.0989 39.4983H63.9896C63.9336 38.2378 64.433 38.5147 65.283 38.1562C65.6479 38.0017 65.9537 37.8104 66.2578 37.5591C66.5227 37.3406 67.2014 36.4482 67.4575 36.4482H68.798V36.449Z" fill="#E0E0E0"/>
<path d="M77.6748 44.8589L78.9738 38.4866H81.462L81.6965 39.5903C82.5593 38.5058 83.8526 37.8295 85.1692 38.6371L84.5657 41.6263L82.9498 41.712C82.9298 40.6843 82.5288 39.1901 81.5828 40.6787L80.7265 44.8597H77.6748V44.8589Z" fill="#E0E0E0"/>
<path d="M63.8057 53.3616L62.141 60.94H59.6903L59.5879 60.7495L61.1237 53.3616H63.8057Z" fill="#E0E0E0"/>
<path d="M72.5897 27.6679L68.3863 27.9496C67.4283 27.956 66.4695 27.9296 65.5123 27.9416C62.2757 27.9832 59.0512 27.9384 55.8058 27.6695C54.6765 27.5759 56.1692 26.9892 56.6397 26.93C59.6746 26.5482 63.6483 26.5274 66.7216 26.6483C67.7028 26.6867 71.5877 26.934 72.2519 27.3126C72.3784 27.3846 72.5304 27.5319 72.5897 27.6671V27.6679Z" fill="#E0E0E0"/>
<path d="M38.5607 27.3325C37.5923 27.3597 36.6183 27.3709 35.649 27.4005C33.1432 27.4749 30.847 27.4765 28.3468 27.4637C26.6973 27.4549 24.6636 27.579 23.0733 27.4653C21.6936 27.3669 22.0737 26.9771 23.1902 26.8178C26.6581 26.3248 33.697 26.3721 37.1945 26.8178C37.6531 26.8763 38.403 26.9707 38.5607 27.3317V27.3325Z" fill="#E0E0E0"/>
</svg>
